<?xml version="1.0" encoding="UTF-8" standalone="no"?>
<!DOCTYPE svg PUBLIC "-//W3C//DTD SVG 1.1//EN"
 "http://www.w3.org/Graphics/SVG/1.1/DTD/svg11.dtd">
<!-- Generated by graphviz version 2.38.0 (20140413.2041)
 -->
<!-- Title: G Pages: 1 -->
<svg width="673pt" height="1128pt"
 viewBox="0.00 0.00 672.57 1128.00" xmlns="http://www.w3.org/2000/svg" xmlns:xlink="http://www.w3.org/1999/xlink">
<g id="graph0" class="graph" transform="scale(1 1) rotate(0) translate(4 1124)">
<title>G</title>
<polygon fill="white" stroke="none" points="-4,4 -4,-1124 668.571,-1124 668.571,4 -4,4"/>
<g id="clust1" class="cluster"><title>cluster_Global</title>
<path fill="none" stroke="gray" d="M387.571,-8C387.571,-8 644.571,-8 644.571,-8 650.571,-8 656.571,-14 656.571,-20 656.571,-20 656.571,-1100 656.571,-1100 656.571,-1106 650.571,-1112 644.571,-1112 644.571,-1112 387.571,-1112 387.571,-1112 381.571,-1112 375.571,-1106 375.571,-1100 375.571,-1100 375.571,-20 375.571,-20 375.571,-14 381.571,-8 387.571,-8"/>
<text text-anchor="middle" x="516.071" y="-1099.2" font-family="Times,serif" font-size="11.00" fill="gray">Global</text>
</g>
<g id="clust2" class="cluster"><title>cluster_\Comproso</title>
<path fill="none" stroke="gray" d="M395.571,-276C395.571,-276 636.571,-276 636.571,-276 642.571,-276 648.571,-282 648.571,-288 648.571,-288 648.571,-1072 648.571,-1072 648.571,-1078 642.571,-1084 636.571,-1084 636.571,-1084 395.571,-1084 395.571,-1084 389.571,-1084 383.571,-1078 383.571,-1072 383.571,-1072 383.571,-288 383.571,-288 383.571,-282 389.571,-276 395.571,-276"/>
<text text-anchor="middle" x="516.071" y="-1071.2" font-family="Times,serif" font-size="11.00" fill="gray">Comproso</text>
</g>
<g id="clust3" class="cluster"><title>cluster_\Comproso\Framework</title>
<path fill="none" stroke="gray" d="M403.571,-284C403.571,-284 628.571,-284 628.571,-284 634.571,-284 640.571,-290 640.571,-296 640.571,-296 640.571,-1044 640.571,-1044 640.571,-1050 634.571,-1056 628.571,-1056 628.571,-1056 403.571,-1056 403.571,-1056 397.571,-1056 391.571,-1050 391.571,-1044 391.571,-1044 391.571,-296 391.571,-296 391.571,-290 397.571,-284 403.571,-284"/>
<text text-anchor="middle" x="516.071" y="-1043.2" font-family="Times,serif" font-size="11.00" fill="gray">Framework</text>
</g>
<g id="clust4" class="cluster"><title>cluster_\Comproso\Framework\Helpers</title>
<path fill="none" stroke="gray" d="M457.571,-956C457.571,-956 574.571,-956 574.571,-956 580.571,-956 586.571,-962 586.571,-968 586.571,-968 586.571,-1016 586.571,-1016 586.571,-1022 580.571,-1028 574.571,-1028 574.571,-1028 457.571,-1028 457.571,-1028 451.571,-1028 445.571,-1022 445.571,-1016 445.571,-1016 445.571,-968 445.571,-968 445.571,-962 451.571,-956 457.571,-956"/>
<text text-anchor="middle" x="516.071" y="-1015.2" font-family="Times,serif" font-size="11.00" fill="gray">Helpers</text>
</g>
<g id="clust5" class="cluster"><title>cluster_\Comproso\Framework\Traits</title>
<path fill="none" stroke="gray" d="M441.071,-714C441.071,-714 591.071,-714 591.071,-714 597.071,-714 603.071,-720 603.071,-726 603.071,-726 603.071,-936 603.071,-936 603.071,-942 597.071,-948 591.071,-948 591.071,-948 441.071,-948 441.071,-948 435.071,-948 429.071,-942 429.071,-936 429.071,-936 429.071,-726 429.071,-726 429.071,-720 435.071,-714 441.071,-714"/>
<text text-anchor="middle" x="516.071" y="-935.2" font-family="Times,serif" font-size="11.00" fill="gray">Traits</text>
</g>
<g id="clust6" class="cluster"><title>cluster_\Comproso\Framework\Models</title>
<path fill="none" stroke="gray" d="M491.571,-472C491.571,-472 540.571,-472 540.571,-472 546.571,-472 552.571,-478 552.571,-484 552.571,-484 552.571,-694 552.571,-694 552.571,-700 546.571,-706 540.571,-706 540.571,-706 491.571,-706 491.571,-706 485.571,-706 479.571,-700 479.571,-694 479.571,-694 479.571,-484 479.571,-484 479.571,-478 485.571,-472 491.571,-472"/>
<text text-anchor="middle" x="516.071" y="-693.2" font-family="Times,serif" font-size="11.00" fill="gray">Models</text>
</g>
<g id="clust7" class="cluster"><title>cluster_\Comproso\Framework\Contracts</title>
<path fill="none" stroke="gray" d="M454.571,-338C454.571,-338 577.571,-338 577.571,-338 583.571,-338 589.571,-344 589.571,-350 589.571,-350 589.571,-452 589.571,-452 589.571,-458 583.571,-464 577.571,-464 577.571,-464 454.571,-464 454.571,-464 448.571,-464 442.571,-458 442.571,-452 442.571,-452 442.571,-350 442.571,-350 442.571,-344 448.571,-338 454.571,-338"/>
<text text-anchor="middle" x="516.071" y="-451.2" font-family="Times,serif" font-size="11.00" fill="gray">Contracts</text>
</g>
<!-- \\Comproso\\Framework\\Helpers\\ControllerHelper -->
<g id="node1" class="node"><title>\\Comproso\\Framework\\Helpers\\ControllerHelper</title>
<polygon fill="none" stroke="black" points="578.571,-1000 453.571,-1000 453.571,-964 578.571,-964 578.571,-1000"/>
<text text-anchor="middle" x="516.071" y="-979.2" font-family="Courier,monospace" font-size="11.00">ControllerHelper</text>
</g>
<!-- \\Comproso\\Framework\\Helpers\\Controller -->
<g id="node19" class="node"><title>\\Comproso\\Framework\\Helpers\\Controller</title>
<ellipse fill="none" stroke="black" cx="163.785" cy="-982" rx="161.671" ry="18"/>
<text text-anchor="middle" x="163.785" y="-978.3" font-family="Times,serif" font-size="14.00" fill="gray">\Comproso\Framework\Helpers\Controller</text>
</g>
<!-- \\Comproso\\Framework\\Helpers\\ControllerHelper&#45;&gt;\\Comproso\\Framework\\Helpers\\Controller -->
<g id="edge2" class="edge"><title>\\Comproso\\Framework\\Helpers\\ControllerHelper&#45;&gt;\\Comproso\\Framework\\Helpers\\Controller</title>
<path fill="none" stroke="black" d="M453.253,-982C420.251,-982 377.842,-982 335.754,-982"/>
<polygon fill="none" stroke="black" points="335.642,-978.5 325.642,-982 335.642,-985.5 335.642,-978.5"/>
</g>
<!-- \\Comproso\\Framework\\Traits\\ModelTrait -->
<g id="node2" class="node"><title>\\Comproso\\Framework\\Traits\\ModelTrait</title>
<polygon fill="none" stroke="black" points="558.071,-920 474.071,-920 474.071,-884 558.071,-884 558.071,-920"/>
<text text-anchor="middle" x="516.071" y="-899.2" font-family="Courier,monospace" font-size="11.00">ModelTrait</text>
</g>
<!-- \\Comproso\\Framework\\Traits\\ModelHelperTrait -->
<g id="node3" class="node"><title>\\Comproso\\Framework\\Traits\\ModelHelperTrait</title>
<polygon fill="none" stroke="black" points="578.571,-866 453.571,-866 453.571,-830 578.571,-830 578.571,-866"/>
<text text-anchor="middle" x="516.071" y="-845.2" font-family="Courier,monospace" font-size="11.00">ModelHelperTrait</text>
</g>
<!-- \\Comproso\\Framework\\Traits\\ControllerHelperTrait -->
<g id="node4" class="node"><title>\\Comproso\\Framework\\Traits\\ControllerHelperTrait</title>
<polygon fill="none" stroke="black" points="595.071,-812 437.071,-812 437.071,-776 595.071,-776 595.071,-812"/>
<text text-anchor="middle" x="516.071" y="-791.2" font-family="Courier,monospace" font-size="11.00">ControllerHelperTrait</text>
</g>
<!-- \\Comproso\\Framework\\Traits\\UserModelTrait -->
<g id="node5" class="node"><title>\\Comproso\\Framework\\Traits\\UserModelTrait</title>
<polygon fill="none" stroke="black" points="571.571,-758 460.571,-758 460.571,-722 571.571,-722 571.571,-758"/>
<text text-anchor="middle" x="516.071" y="-737.2" font-family="Courier,monospace" font-size="11.00">UserModelTrait</text>
</g>
<!-- \\Comproso\\Framework\\Models\\Result -->
<g id="node6" class="node"><title>\\Comproso\\Framework\\Models\\Result</title>
<polygon fill="none" stroke="black" points="544.571,-678 487.571,-678 487.571,-642 544.571,-642 544.571,-678"/>
<text text-anchor="middle" x="516.071" y="-657.2" font-family="Courier,monospace" font-size="11.00">Result</text>
</g>
<!-- \\Illuminate\\Database\\Eloquent\\Model -->
<g id="node20" class="node"><title>\\Illuminate\\Database\\Eloquent\\Model</title>
<ellipse fill="none" stroke="black" cx="163.785" cy="-579" rx="144.075" ry="18"/>
<text text-anchor="middle" x="163.785" y="-575.3" font-family="Times,serif" font-size="14.00" fill="gray">\Illuminate\Database\Eloquent\Model</text>
</g>
<!-- \\Comproso\\Framework\\Models\\Result&#45;&gt;\\Illuminate\\Database\\Eloquent\\Model -->
<g id="edge3" class="edge"><title>\\Comproso\\Framework\\Models\\Result&#45;&gt;\\Illuminate\\Database\\Eloquent\\Model</title>
<path fill="none" stroke="black" d="M487.443,-655.154C459.226,-650.088 414.201,-641.678 375.571,-633 328.411,-622.405 275.738,-608.912 234.842,-598.064"/>
<polygon fill="none" stroke="black" points="235.541,-594.628 224.977,-595.437 233.74,-601.392 235.541,-594.628"/>
</g>
<!-- \\Comproso\\Framework\\Models\\Test -->
<g id="node7" class="node"><title>\\Comproso\\Framework\\Models\\Test</title>
<polygon fill="none" stroke="black" points="543.071,-624 489.071,-624 489.071,-588 543.071,-588 543.071,-624"/>
<text text-anchor="middle" x="516.071" y="-603.2" font-family="Courier,monospace" font-size="11.00">Test</text>
</g>
<!-- \\Comproso\\Framework\\Models\\Test&#45;&gt;\\Illuminate\\Database\\Eloquent\\Model -->
<g id="edge7" class="edge"><title>\\Comproso\\Framework\\Models\\Test&#45;&gt;\\Illuminate\\Database\\Eloquent\\Model</title>
<path fill="none" stroke="black" d="M489.029,-603.993C448.604,-600.877 368.036,-594.667 297.329,-589.216"/>
<polygon fill="none" stroke="black" points="297.214,-585.697 286.974,-588.418 296.676,-592.677 297.214,-585.697"/>
</g>
<!-- \\Comproso\\Framework\\Models\\Item -->
<g id="node8" class="node"><title>\\Comproso\\Framework\\Models\\Item</title>
<polygon fill="none" stroke="black" points="543.071,-570 489.071,-570 489.071,-534 543.071,-534 543.071,-570"/>
<text text-anchor="middle" x="516.071" y="-549.2" font-family="Courier,monospace" font-size="11.00">Item</text>
</g>
<!-- \\Comproso\\Framework\\Models\\Item&#45;&gt;\\Illuminate\\Database\\Eloquent\\Model -->
<g id="edge8" class="edge"><title>\\Comproso\\Framework\\Models\\Item&#45;&gt;\\Illuminate\\Database\\Eloquent\\Model</title>
<path fill="none" stroke="black" d="M489.029,-554.007C448.604,-557.123 368.036,-563.333 297.329,-568.784"/>
<polygon fill="none" stroke="black" points="296.676,-565.323 286.974,-569.582 297.214,-572.303 296.676,-565.323"/>
</g>
<!-- \\Comproso\\Framework\\Models\\Page -->
<g id="node9" class="node"><title>\\Comproso\\Framework\\Models\\Page</title>
<polygon fill="none" stroke="black" points="543.071,-516 489.071,-516 489.071,-480 543.071,-480 543.071,-516"/>
<text text-anchor="middle" x="516.071" y="-495.2" font-family="Courier,monospace" font-size="11.00">Page</text>
</g>
<!-- \\Comproso\\Framework\\Models\\Page&#45;&gt;\\Illuminate\\Database\\Eloquent\\Model -->
<g id="edge9" class="edge"><title>\\Comproso\\Framework\\Models\\Page&#45;&gt;\\Illuminate\\Database\\Eloquent\\Model</title>
<path fill="none" stroke="black" d="M489.007,-502.565C460.911,-507.598 414.923,-516.159 375.571,-525 328.411,-535.595 275.738,-549.088 234.842,-559.936"/>
<polygon fill="none" stroke="black" points="233.74,-556.608 224.977,-562.563 235.541,-563.372 233.74,-556.608"/>
</g>
<!-- \\Comproso\\Framework\\Contracts\\UserModelContract -->
<g id="node10" class="node"><title>\\Comproso\\Framework\\Contracts\\UserModelContract</title>
<polygon fill="none" stroke="black" points="581.571,-436 450.571,-436 450.571,-400 581.571,-400 581.571,-436"/>
<text text-anchor="middle" x="516.071" y="-415.2" font-family="Courier,monospace" font-size="11.00">UserModelContract</text>
</g>
<!-- \\Comproso\\Framework\\Contracts\\ElementContract -->
<g id="node11" class="node"><title>\\Comproso\\Framework\\Contracts\\ElementContract</title>
<polygon fill="none" stroke="black" points="575.071,-382 457.071,-382 457.071,-346 575.071,-346 575.071,-382"/>
<text text-anchor="middle" x="516.071" y="-361.2" font-family="Courier,monospace" font-size="11.00">ElementContract</text>
</g>
<!-- \\Comproso\\Framework\\ComprosoFrameworkServiceProvider -->
<g id="node12" class="node"><title>\\Comproso\\Framework\\ComprosoFrameworkServiceProvider</title>
<polygon fill="none" stroke="black" points="632.571,-328 399.571,-328 399.571,-292 632.571,-292 632.571,-328"/>
<text text-anchor="middle" x="516.071" y="-307.2" font-family="Courier,monospace" font-size="11.00">ComprosoFrameworkServiceProvider</text>
</g>
<!-- \\Illuminate\\Support\\ServiceProvider -->
<g id="node21" class="node"><title>\\Illuminate\\Support\\ServiceProvider</title>
<ellipse fill="none" stroke="black" cx="163.785" cy="-310" rx="139.175" ry="18"/>
<text text-anchor="middle" x="163.785" y="-306.3" font-family="Times,serif" font-size="14.00" fill="gray">\Illuminate\Support\ServiceProvider</text>
</g>
<!-- \\Comproso\\Framework\\ComprosoFrameworkServiceProvider&#45;&gt;\\Illuminate\\Support\\ServiceProvider -->
<g id="edge4" class="edge"><title>\\Comproso\\Framework\\ComprosoFrameworkServiceProvider&#45;&gt;\\Illuminate\\Support\\ServiceProvider</title>
<path fill="none" stroke="black" d="M399.404,-310C371.862,-310 342.095,-310 313.309,-310"/>
<polygon fill="none" stroke="black" points="313.174,-306.5 303.174,-310 313.173,-313.5 313.174,-306.5"/>
</g>
<!-- \\CreateItemTable -->
<g id="node13" class="node"><title>\\CreateItemTable</title>
<polygon fill="none" stroke="black" points="575.071,-268 457.071,-268 457.071,-232 575.071,-232 575.071,-268"/>
<text text-anchor="middle" x="516.071" y="-247.2" font-family="Courier,monospace" font-size="11.00">CreateItemTable</text>
</g>
<!-- \\Illuminate\\Database\\Migrations\\Migration -->
<g id="node18" class="node"><title>\\Illuminate\\Database\\Migrations\\Migration</title>
<ellipse fill="none" stroke="black" cx="163.785" cy="-142" rx="163.571" ry="18"/>
<text text-anchor="middle" x="163.785" y="-138.3" font-family="Times,serif" font-size="14.00" fill="gray">\Illuminate\Database\Migrations\Migration</text>
</g>
<!-- \\CreateItemTable&#45;&gt;\\Illuminate\\Database\\Migrations\\Migration -->
<g id="edge1" class="edge"><title>\\CreateItemTable&#45;&gt;\\Illuminate\\Database\\Migrations\\Migration</title>
<path fill="none" stroke="black" d="M456.841,-241.085C431.616,-236.619 401.894,-230.542 375.571,-223 318.635,-206.688 255.491,-181.419 213.295,-163.446"/>
<polygon fill="none" stroke="black" points="214.662,-160.225 204.092,-159.501 211.903,-166.658 214.662,-160.225"/>
</g>
<!-- \\CreateResultTable -->
<g id="node14" class="node"><title>\\CreateResultTable</title>
<polygon fill="none" stroke="black" points="581.571,-214 450.571,-214 450.571,-178 581.571,-178 581.571,-214"/>
<text text-anchor="middle" x="516.071" y="-193.2" font-family="Courier,monospace" font-size="11.00">CreateResultTable</text>
</g>
<!-- \\CreateResultTable&#45;&gt;\\Illuminate\\Database\\Migrations\\Migration -->
<g id="edge5" class="edge"><title>\\CreateResultTable&#45;&gt;\\Illuminate\\Database\\Migrations\\Migration</title>
<path fill="none" stroke="black" d="M450.415,-186.033C399.866,-178.24 328.565,-167.248 269.847,-158.196"/>
<polygon fill="none" stroke="black" points="270.206,-154.71 259.789,-156.646 269.139,-161.629 270.206,-154.71"/>
</g>
<!-- \\CreateTestUserTable -->
<g id="node15" class="node"><title>\\CreateTestUserTable</title>
<polygon fill="none" stroke="black" points="588.571,-160 443.571,-160 443.571,-124 588.571,-124 588.571,-160"/>
<text text-anchor="middle" x="516.071" y="-139.2" font-family="Courier,monospace" font-size="11.00">CreateTestUserTable</text>
</g>
<!-- \\CreateTestUserTable&#45;&gt;\\Illuminate\\Database\\Migrations\\Migration -->
<g id="edge6" class="edge"><title>\\CreateTestUserTable&#45;&gt;\\Illuminate\\Database\\Migrations\\Migration</title>
<path fill="none" stroke="black" d="M443.34,-142C412.695,-142 375.469,-142 338.338,-142"/>
<polygon fill="none" stroke="black" points="337.874,-138.5 327.874,-142 337.873,-145.5 337.874,-138.5"/>
</g>
<!-- \\CreatePageTable -->
<g id="node16" class="node"><title>\\CreatePageTable</title>
<polygon fill="none" stroke="black" points="575.071,-106 457.071,-106 457.071,-70 575.071,-70 575.071,-106"/>
<text text-anchor="middle" x="516.071" y="-85.2" font-family="Courier,monospace" font-size="11.00">CreatePageTable</text>
</g>
<!-- \\CreatePageTable&#45;&gt;\\Illuminate\\Database\\Migrations\\Migration -->
<g id="edge10" class="edge"><title>\\CreatePageTable&#45;&gt;\\Illuminate\\Database\\Migrations\\Migration</title>
<path fill="none" stroke="black" d="M456.835,-96.9776C406.065,-104.804 331.176,-116.349 269.944,-125.789"/>
<polygon fill="none" stroke="black" points="269.202,-122.362 259.852,-127.345 270.268,-129.28 269.202,-122.362"/>
</g>
<!-- \\CreateTestTable -->
<g id="node17" class="node"><title>\\CreateTestTable</title>
<polygon fill="none" stroke="black" points="575.071,-52 457.071,-52 457.071,-16 575.071,-16 575.071,-52"/>
<text text-anchor="middle" x="516.071" y="-31.2" font-family="Courier,monospace" font-size="11.00">CreateTestTable</text>
</g>
<!-- \\CreateTestTable&#45;&gt;\\Illuminate\\Database\\Migrations\\Migration -->
<g id="edge11" class="edge"><title>\\CreateTestTable&#45;&gt;\\Illuminate\\Database\\Migrations\\Migration</title>
<path fill="none" stroke="black" d="M456.841,-42.9152C431.616,-47.3807 401.894,-53.4584 375.571,-61 318.635,-77.3125 255.491,-102.581 213.295,-120.554"/>
<polygon fill="none" stroke="black" points="211.903,-117.342 204.092,-124.499 214.662,-123.775 211.903,-117.342"/>
</g>
</g>
</svg>
