<?xml version="1.0" encoding="UTF-8" standalone="no"?>
<!DOCTYPE svg PUBLIC "-//W3C//DTD SVG 1.1//EN"
 "http://www.w3.org/Graphics/SVG/1.1/DTD/svg11.dtd">
<!-- Generated by graphviz version 2.38.0 (20140413.2041)
 -->
<!-- Title: G Pages: 1 -->
<svg width="673pt" height="1128pt"
 viewBox="0.00 0.00 672.57 1128.00" xmlns="http://www.w3.org/2000/svg" xmlns:xlink="http://www.w3.org/1999/xlink">
<g id="graph0" class="graph" transform="scale(1 1) rotate(0) translate(4 1124)">
<title>G</title>
<polygon fill="white" stroke="none" points="-4,4 -4,-1124 668.571,-1124 668.571,4 -4,4"/>
<g id="clust1" class="cluster"><title>cluster_Global</title>
<path fill="none" stroke="gray" d="M387.571,-8C387.571,-8 644.571,-8 644.571,-8 650.571,-8 656.571,-14 656.571,-20 656.571,-20 656.571,-1100 656.571,-1100 656.571,-1106 650.571,-1112 644.571,-1112 644.571,-1112 387.571,-1112 387.571,-1112 381.571,-1112 375.571,-1106 375.571,-1100 375.571,-1100 375.571,-20 375.571,-20 375.571,-14 381.571,-8 387.571,-8"/>
<text text-anchor="middle" x="516.071" y="-1099.2" font-family="Times,serif" font-size="11.00" fill="gray">Global</text>
</g>
<g id="clust2" class="cluster"><title>cluster_\Comproso</title>
<path fill="none" stroke="gray" d="M395.571,-276C395.571,-276 636.571,-276 636.571,-276 642.571,-276 648.571,-282 648.571,-288 648.571,-288 648.571,-1072 648.571,-1072 648.571,-1078 642.571,-1084 636.571,-1084 636.571,-1084 395.571,-1084 395.571,-1084 389.571,-1084 383.571,-1078 383.571,-1072 383.571,-1072 383.571,-288 383.571,-288 383.571,-282 389.571,-276 395.571,-276"/>
<text text-anchor="middle" x="516.071" y="-1071.2" font-family="Times,serif" font-size="11.00" fill="gray">Comproso</text>
</g>
<g id="clust3" class="cluster"><title>cluster_\Comproso\Framework</title>
<path fill="none" stroke="gray" d="M403.571,-284C403.571,-284 628.571,-284 628.571,-284 634.571,-284 640.571,-290 640.571,-296 640.571,-296 640.571,-1044 640.571,-1044 640.571,-1050 634.571,-1056 628.571,-1056 628.571,-1056 403.571,-1056 403.571,-1056 397.571,-1056 391.571,-1050 391.571,-1044 391.571,-1044 391.571,-296 391.571,-296 391.571,-290 397.571,-284 403.571,-284"/>
<text text-anchor="middle" x="516.071" y="-1043.2" font-family="Times,serif" font-size="11.00" fill="gray">Framework</text>
</g>
<g id="clust4" class="cluster"><title>cluster_\Comproso\Framework\Traits</title>
<path fill="none" stroke="gray" d="M441.071,-794C441.071,-794 591.071,-794 591.071,-794 597.071,-794 603.071,-800 603.071,-806 603.071,-806 603.071,-1016 603.071,-1016 603.071,-1022 597.071,-1028 591.071,-1028 591.071,-1028 441.071,-1028 441.071,-1028 435.071,-1028 429.071,-1022 429.071,-1016 429.071,-1016 429.071,-806 429.071,-806 429.071,-800 435.071,-794 441.071,-794"/>
<text text-anchor="middle" x="516.071" y="-1015.2" font-family="Times,serif" font-size="11.00" fill="gray">Traits</text>
</g>
<g id="clust5" class="cluster"><title>cluster_\Comproso\Framework\Models</title>
<path fill="none" stroke="gray" d="M491.571,-552C491.571,-552 540.571,-552 540.571,-552 546.571,-552 552.571,-558 552.571,-564 552.571,-564 552.571,-774 552.571,-774 552.571,-780 546.571,-786 540.571,-786 540.571,-786 491.571,-786 491.571,-786 485.571,-786 479.571,-780 479.571,-774 479.571,-774 479.571,-564 479.571,-564 479.571,-558 485.571,-552 491.571,-552"/>
<text text-anchor="middle" x="516.071" y="-773.2" font-family="Times,serif" font-size="11.00" fill="gray">Models</text>
</g>
<g id="clust6" class="cluster"><title>cluster_\Comproso\Framework\Contracts</title>
<path fill="none" stroke="gray" d="M454.571,-418C454.571,-418 577.571,-418 577.571,-418 583.571,-418 589.571,-424 589.571,-430 589.571,-430 589.571,-532 589.571,-532 589.571,-538 583.571,-544 577.571,-544 577.571,-544 454.571,-544 454.571,-544 448.571,-544 442.571,-538 442.571,-532 442.571,-532 442.571,-430 442.571,-430 442.571,-424 448.571,-418 454.571,-418"/>
<text text-anchor="middle" x="516.071" y="-531.2" font-family="Times,serif" font-size="11.00" fill="gray">Contracts</text>
</g>
<g id="clust7" class="cluster"><title>cluster_\Comproso\Framework\Helpers</title>
<path fill="none" stroke="gray" d="M457.571,-338C457.571,-338 574.571,-338 574.571,-338 580.571,-338 586.571,-344 586.571,-350 586.571,-350 586.571,-398 586.571,-398 586.571,-404 580.571,-410 574.571,-410 574.571,-410 457.571,-410 457.571,-410 451.571,-410 445.571,-404 445.571,-398 445.571,-398 445.571,-350 445.571,-350 445.571,-344 451.571,-338 457.571,-338"/>
<text text-anchor="middle" x="516.071" y="-397.2" font-family="Times,serif" font-size="11.00" fill="gray">Helpers</text>
</g>
<!-- \\Comproso\\Framework\\Traits\\UserModelTrait -->
<g id="node1" class="node"><title>\\Comproso\\Framework\\Traits\\UserModelTrait</title>
<polygon fill="none" stroke="black" points="571.571,-1000 460.571,-1000 460.571,-964 571.571,-964 571.571,-1000"/>
<text text-anchor="middle" x="516.071" y="-979.2" font-family="Courier,monospace" font-size="11.00">UserModelTrait</text>
</g>
<!-- \\Comproso\\Framework\\Traits\\ModelHelperTrait -->
<g id="node2" class="node"><title>\\Comproso\\Framework\\Traits\\ModelHelperTrait</title>
<polygon fill="none" stroke="black" points="578.571,-946 453.571,-946 453.571,-910 578.571,-910 578.571,-946"/>
<text text-anchor="middle" x="516.071" y="-925.2" font-family="Courier,monospace" font-size="11.00">ModelHelperTrait</text>
</g>
<!-- \\Comproso\\Framework\\Traits\\ControllerHelperTrait -->
<g id="node3" class="node"><title>\\Comproso\\Framework\\Traits\\ControllerHelperTrait</title>
<polygon fill="none" stroke="black" points="595.071,-892 437.071,-892 437.071,-856 595.071,-856 595.071,-892"/>
<text text-anchor="middle" x="516.071" y="-871.2" font-family="Courier,monospace" font-size="11.00">ControllerHelperTrait</text>
</g>
<!-- \\Comproso\\Framework\\Traits\\ModelTrait -->
<g id="node4" class="node"><title>\\Comproso\\Framework\\Traits\\ModelTrait</title>
<polygon fill="none" stroke="black" points="558.071,-838 474.071,-838 474.071,-802 558.071,-802 558.071,-838"/>
<text text-anchor="middle" x="516.071" y="-817.2" font-family="Courier,monospace" font-size="11.00">ModelTrait</text>
</g>
<!-- \\Comproso\\Framework\\Models\\Page -->
<g id="node5" class="node"><title>\\Comproso\\Framework\\Models\\Page</title>
<polygon fill="none" stroke="black" points="543.071,-758 489.071,-758 489.071,-722 543.071,-722 543.071,-758"/>
<text text-anchor="middle" x="516.071" y="-737.2" font-family="Courier,monospace" font-size="11.00">Page</text>
</g>
<!-- \\Illuminate\\Database\\Eloquent\\Model -->
<g id="node18" class="node"><title>\\Illuminate\\Database\\Eloquent\\Model</title>
<ellipse fill="none" stroke="black" cx="163.785" cy="-659" rx="144.075" ry="18"/>
<text text-anchor="middle" x="163.785" y="-655.3" font-family="Times,serif" font-size="14.00" fill="gray">\Illuminate\Database\Eloquent\Model</text>
</g>
<!-- \\Comproso\\Framework\\Models\\Page&#45;&gt;\\Illuminate\\Database\\Eloquent\\Model -->
<g id="edge1" class="edge"><title>\\Comproso\\Framework\\Models\\Page&#45;&gt;\\Illuminate\\Database\\Eloquent\\Model</title>
<path fill="none" stroke="black" d="M489.007,-735.435C460.911,-730.402 414.923,-721.841 375.571,-713 328.411,-702.405 275.738,-688.912 234.842,-678.064"/>
<polygon fill="none" stroke="black" points="235.541,-674.628 224.977,-675.437 233.74,-681.392 235.541,-674.628"/>
</g>
<!-- \\Comproso\\Framework\\Models\\Test -->
<g id="node6" class="node"><title>\\Comproso\\Framework\\Models\\Test</title>
<polygon fill="none" stroke="black" points="543.071,-704 489.071,-704 489.071,-668 543.071,-668 543.071,-704"/>
<text text-anchor="middle" x="516.071" y="-683.2" font-family="Courier,monospace" font-size="11.00">Test</text>
</g>
<!-- \\Comproso\\Framework\\Models\\Test&#45;&gt;\\Illuminate\\Database\\Eloquent\\Model -->
<g id="edge2" class="edge"><title>\\Comproso\\Framework\\Models\\Test&#45;&gt;\\Illuminate\\Database\\Eloquent\\Model</title>
<path fill="none" stroke="black" d="M489.029,-683.993C448.604,-680.877 368.036,-674.667 297.329,-669.216"/>
<polygon fill="none" stroke="black" points="297.214,-665.697 286.974,-668.418 296.676,-672.677 297.214,-665.697"/>
</g>
<!-- \\Comproso\\Framework\\Models\\Item -->
<g id="node7" class="node"><title>\\Comproso\\Framework\\Models\\Item</title>
<polygon fill="none" stroke="black" points="543.071,-650 489.071,-650 489.071,-614 543.071,-614 543.071,-650"/>
<text text-anchor="middle" x="516.071" y="-629.2" font-family="Courier,monospace" font-size="11.00">Item</text>
</g>
<!-- \\Comproso\\Framework\\Models\\Item&#45;&gt;\\Illuminate\\Database\\Eloquent\\Model -->
<g id="edge3" class="edge"><title>\\Comproso\\Framework\\Models\\Item&#45;&gt;\\Illuminate\\Database\\Eloquent\\Model</title>
<path fill="none" stroke="black" d="M489.029,-634.007C448.604,-637.123 368.036,-643.333 297.329,-648.784"/>
<polygon fill="none" stroke="black" points="296.676,-645.323 286.974,-649.582 297.214,-652.303 296.676,-645.323"/>
</g>
<!-- \\Comproso\\Framework\\Models\\Result -->
<g id="node8" class="node"><title>\\Comproso\\Framework\\Models\\Result</title>
<polygon fill="none" stroke="black" points="544.571,-596 487.571,-596 487.571,-560 544.571,-560 544.571,-596"/>
<text text-anchor="middle" x="516.071" y="-575.2" font-family="Courier,monospace" font-size="11.00">Result</text>
</g>
<!-- \\Comproso\\Framework\\Models\\Result&#45;&gt;\\Illuminate\\Database\\Eloquent\\Model -->
<g id="edge4" class="edge"><title>\\Comproso\\Framework\\Models\\Result&#45;&gt;\\Illuminate\\Database\\Eloquent\\Model</title>
<path fill="none" stroke="black" d="M487.443,-582.846C459.226,-587.912 414.201,-596.322 375.571,-605 328.411,-615.595 275.738,-629.088 234.842,-639.936"/>
<polygon fill="none" stroke="black" points="233.74,-636.608 224.977,-642.563 235.541,-643.372 233.74,-636.608"/>
</g>
<!-- \\Comproso\\Framework\\Contracts\\ElementContract -->
<g id="node9" class="node"><title>\\Comproso\\Framework\\Contracts\\ElementContract</title>
<polygon fill="none" stroke="black" points="575.071,-516 457.071,-516 457.071,-480 575.071,-480 575.071,-516"/>
<text text-anchor="middle" x="516.071" y="-495.2" font-family="Courier,monospace" font-size="11.00">ElementContract</text>
</g>
<!-- \\Comproso\\Framework\\Contracts\\UserModelContract -->
<g id="node10" class="node"><title>\\Comproso\\Framework\\Contracts\\UserModelContract</title>
<polygon fill="none" stroke="black" points="581.571,-462 450.571,-462 450.571,-426 581.571,-426 581.571,-462"/>
<text text-anchor="middle" x="516.071" y="-441.2" font-family="Courier,monospace" font-size="11.00">UserModelContract</text>
</g>
<!-- \\Comproso\\Framework\\Helpers\\ControllerHelper -->
<g id="node11" class="node"><title>\\Comproso\\Framework\\Helpers\\ControllerHelper</title>
<polygon fill="none" stroke="black" points="578.571,-382 453.571,-382 453.571,-346 578.571,-346 578.571,-382"/>
<text text-anchor="middle" x="516.071" y="-361.2" font-family="Courier,monospace" font-size="11.00">ControllerHelper</text>
</g>
<!-- \\Comproso\\Framework\\Helpers\\Controller -->
<g id="node21" class="node"><title>\\Comproso\\Framework\\Helpers\\Controller</title>
<ellipse fill="none" stroke="black" cx="163.785" cy="-364" rx="161.671" ry="18"/>
<text text-anchor="middle" x="163.785" y="-360.3" font-family="Times,serif" font-size="14.00" fill="gray">\Comproso\Framework\Helpers\Controller</text>
</g>
<!-- \\Comproso\\Framework\\Helpers\\ControllerHelper&#45;&gt;\\Comproso\\Framework\\Helpers\\Controller -->
<g id="edge11" class="edge"><title>\\Comproso\\Framework\\Helpers\\ControllerHelper&#45;&gt;\\Comproso\\Framework\\Helpers\\Controller</title>
<path fill="none" stroke="black" d="M453.253,-364C420.251,-364 377.842,-364 335.754,-364"/>
<polygon fill="none" stroke="black" points="335.642,-360.5 325.642,-364 335.642,-367.5 335.642,-360.5"/>
</g>
<!-- \\Comproso\\Framework\\ComprosoFrameworkServiceProvider -->
<g id="node12" class="node"><title>\\Comproso\\Framework\\ComprosoFrameworkServiceProvider</title>
<polygon fill="none" stroke="black" points="632.571,-328 399.571,-328 399.571,-292 632.571,-292 632.571,-328"/>
<text text-anchor="middle" x="516.071" y="-307.2" font-family="Courier,monospace" font-size="11.00">ComprosoFrameworkServiceProvider</text>
</g>
<!-- \\Illuminate\\Support\\ServiceProvider -->
<g id="node20" class="node"><title>\\Illuminate\\Support\\ServiceProvider</title>
<ellipse fill="none" stroke="black" cx="163.785" cy="-310" rx="139.175" ry="18"/>
<text text-anchor="middle" x="163.785" y="-306.3" font-family="Times,serif" font-size="14.00" fill="gray">\Illuminate\Support\ServiceProvider</text>
</g>
<!-- \\Comproso\\Framework\\ComprosoFrameworkServiceProvider&#45;&gt;\\Illuminate\\Support\\ServiceProvider -->
<g id="edge10" class="edge"><title>\\Comproso\\Framework\\ComprosoFrameworkServiceProvider&#45;&gt;\\Illuminate\\Support\\ServiceProvider</title>
<path fill="none" stroke="black" d="M399.404,-310C371.862,-310 342.095,-310 313.309,-310"/>
<polygon fill="none" stroke="black" points="313.174,-306.5 303.174,-310 313.173,-313.5 313.174,-306.5"/>
</g>
<!-- \\CreateTestTable -->
<g id="node13" class="node"><title>\\CreateTestTable</title>
<polygon fill="none" stroke="black" points="575.071,-268 457.071,-268 457.071,-232 575.071,-232 575.071,-268"/>
<text text-anchor="middle" x="516.071" y="-247.2" font-family="Courier,monospace" font-size="11.00">CreateTestTable</text>
</g>
<!-- \\Illuminate\\Database\\Migrations\\Migration -->
<g id="node19" class="node"><title>\\Illuminate\\Database\\Migrations\\Migration</title>
<ellipse fill="none" stroke="black" cx="163.785" cy="-142" rx="163.571" ry="18"/>
<text text-anchor="middle" x="163.785" y="-138.3" font-family="Times,serif" font-size="14.00" fill="gray">\Illuminate\Database\Migrations\Migration</text>
</g>
<!-- \\CreateTestTable&#45;&gt;\\Illuminate\\Database\\Migrations\\Migration -->
<g id="edge5" class="edge"><title>\\CreateTestTable&#45;&gt;\\Illuminate\\Database\\Migrations\\Migration</title>
<path fill="none" stroke="black" d="M456.841,-241.085C431.616,-236.619 401.894,-230.542 375.571,-223 318.635,-206.688 255.491,-181.419 213.295,-163.446"/>
<polygon fill="none" stroke="black" points="214.662,-160.225 204.092,-159.501 211.903,-166.658 214.662,-160.225"/>
</g>
<!-- \\CreateItemTable -->
<g id="node14" class="node"><title>\\CreateItemTable</title>
<polygon fill="none" stroke="black" points="575.071,-214 457.071,-214 457.071,-178 575.071,-178 575.071,-214"/>
<text text-anchor="middle" x="516.071" y="-193.2" font-family="Courier,monospace" font-size="11.00">CreateItemTable</text>
</g>
<!-- \\CreateItemTable&#45;&gt;\\Illuminate\\Database\\Migrations\\Migration -->
<g id="edge6" class="edge"><title>\\CreateItemTable&#45;&gt;\\Illuminate\\Database\\Migrations\\Migration</title>
<path fill="none" stroke="black" d="M456.835,-187.022C406.065,-179.196 331.176,-167.651 269.944,-158.211"/>
<polygon fill="none" stroke="black" points="270.268,-154.72 259.852,-156.655 269.202,-161.638 270.268,-154.72"/>
</g>
<!-- \\CreateTestUserTable -->
<g id="node15" class="node"><title>\\CreateTestUserTable</title>
<polygon fill="none" stroke="black" points="588.571,-160 443.571,-160 443.571,-124 588.571,-124 588.571,-160"/>
<text text-anchor="middle" x="516.071" y="-139.2" font-family="Courier,monospace" font-size="11.00">CreateTestUserTable</text>
</g>
<!-- \\CreateTestUserTable&#45;&gt;\\Illuminate\\Database\\Migrations\\Migration -->
<g id="edge7" class="edge"><title>\\CreateTestUserTable&#45;&gt;\\Illuminate\\Database\\Migrations\\Migration</title>
<path fill="none" stroke="black" d="M443.34,-142C412.695,-142 375.469,-142 338.338,-142"/>
<polygon fill="none" stroke="black" points="337.874,-138.5 327.874,-142 337.873,-145.5 337.874,-138.5"/>
</g>
<!-- \\CreateResultTable -->
<g id="node16" class="node"><title>\\CreateResultTable</title>
<polygon fill="none" stroke="black" points="581.571,-106 450.571,-106 450.571,-70 581.571,-70 581.571,-106"/>
<text text-anchor="middle" x="516.071" y="-85.2" font-family="Courier,monospace" font-size="11.00">CreateResultTable</text>
</g>
<!-- \\CreateResultTable&#45;&gt;\\Illuminate\\Database\\Migrations\\Migration -->
<g id="edge8" class="edge"><title>\\CreateResultTable&#45;&gt;\\Illuminate\\Database\\Migrations\\Migration</title>
<path fill="none" stroke="black" d="M450.415,-97.9674C399.866,-105.76 328.565,-116.752 269.847,-125.804"/>
<polygon fill="none" stroke="black" points="269.139,-122.371 259.789,-127.354 270.206,-129.29 269.139,-122.371"/>
</g>
<!-- \\CreatePageTable -->
<g id="node17" class="node"><title>\\CreatePageTable</title>
<polygon fill="none" stroke="black" points="575.071,-52 457.071,-52 457.071,-16 575.071,-16 575.071,-52"/>
<text text-anchor="middle" x="516.071" y="-31.2" font-family="Courier,monospace" font-size="11.00">CreatePageTable</text>
</g>
<!-- \\CreatePageTable&#45;&gt;\\Illuminate\\Database\\Migrations\\Migration -->
<g id="edge9" class="edge"><title>\\CreatePageTable&#45;&gt;\\Illuminate\\Database\\Migrations\\Migration</title>
<path fill="none" stroke="black" d="M456.841,-42.9152C431.616,-47.3807 401.894,-53.4584 375.571,-61 318.635,-77.3125 255.491,-102.581 213.295,-120.554"/>
<polygon fill="none" stroke="black" points="211.903,-117.342 204.092,-124.499 214.662,-123.775 211.903,-117.342"/>
</g>
</g>
</svg>
